<svg width="50" height="50" viewBox="0 0 250 200" fill="none" xmlns="http://www.w3.org/2000/svg">
<path d="M0 100.431V88.6711C7.46186 88.6711 12.6719 86.8679 15.6302 83.2615C18.5884 79.6028 20.0676 73.5659 20.0676 65.1509V42.6499C20.0676 34.6531 20.8182 27.9368 22.3194 22.501C23.8647 17.0129 26.2048 12.6225 29.3397 9.32967C32.4746 6.03684 36.4483 3.65869 41.261 2.19522C46.0737 0.73174 51.7474 0 58.282 0V18.5809C53.1603 18.5809 49.1644 19.4695 46.2945 21.2466C43.4245 23.0236 41.4155 25.7938 40.2676 29.557C39.1637 33.268 38.6118 38.0243 38.6118 43.8259V72.3638C38.6118 76.3883 38.1041 80.1254 37.0885 83.5751C36.073 86.9724 34.1965 89.9255 31.459 92.4343C28.7215 94.9432 24.814 96.9032 19.7364 98.3144C14.6588 99.7256 8.08001 100.431 0 100.431ZM58.282 200C51.7474 200 46.0737 199.268 41.261 197.805C36.4483 196.341 32.4746 193.963 29.3397 190.67C26.2048 187.378 23.8647 183.013 22.3194 177.577C20.8182 172.089 20.0676 165.347 20.0676 157.35V134.771C20.0676 126.408 18.5884 120.397 15.6302 116.739C12.6719 113.08 7.46186 111.25 0 111.25V99.5688C8.08001 99.5688 14.6588 100.274 19.7364 101.686C24.814 103.045 28.7215 105.005 31.459 107.566C34.1965 110.074 36.073 113.054 37.0885 116.503C38.1041 119.901 38.6118 123.612 38.6118 127.636V156.174C38.6118 161.923 39.1637 166.68 40.2676 170.443C41.4155 174.154 43.4245 176.924 46.2945 178.753C49.1644 180.531 53.1603 181.419 58.282 181.419V200ZM0 111.25V88.6711H18.3456V111.25H0Z" fill="#0AE427"/>
<path d="M78.896 180.243V19.6786H128.568C138.193 19.6786 146.163 21.5602 152.477 25.3234C158.791 29.0344 163.515 34.0781 166.65 40.4547C169.785 46.779 171.352 53.9135 171.352 61.8581C171.352 68.5483 170.315 74.1931 168.24 78.7926C166.164 83.3399 163.383 86.9986 159.895 89.7687C156.451 92.4866 152.654 94.4727 148.503 95.7272V97.2952C153.007 97.5565 157.4 99.2813 161.683 102.47C166.01 105.606 169.586 110.074 172.412 115.876C175.238 121.678 176.651 128.734 176.651 137.044C176.651 145.25 175.017 152.62 171.75 159.153C168.527 165.634 163.537 170.783 156.782 174.598C150.026 178.361 141.395 180.243 130.886 180.243H78.896ZM99.3609 159.467H128.899C138.701 159.467 145.722 157.219 149.96 152.724C154.199 148.229 156.318 142.611 156.318 135.868C156.318 130.798 155.237 126.147 153.073 121.913C150.91 117.679 147.819 114.308 143.801 111.799C139.827 109.29 135.103 108.036 129.628 108.036H99.3609V159.467ZM99.3609 89.1415H126.78C131.372 89.1415 135.5 88.0962 139.165 86.0055C142.874 83.9148 145.81 80.9878 147.973 77.2246C150.181 73.4091 151.285 68.9141 151.285 63.7397C151.285 57.1018 149.32 51.5353 145.39 47.0404C141.461 42.5454 135.434 40.2979 127.31 40.2979H99.3609V89.1415Z" fill="white"/>
<path d="M250 99.5688V111.25C242.538 111.25 237.328 113.08 234.37 116.739C231.412 120.397 229.932 126.408 229.932 134.771V157.35C229.932 165.347 229.16 172.089 227.614 177.577C226.113 183.013 223.795 187.378 220.66 190.67C217.525 193.963 213.552 196.341 208.739 197.805C203.926 199.268 198.253 200 191.718 200V181.419C196.84 181.419 200.836 180.531 203.706 178.753C206.575 176.924 208.562 174.154 209.666 170.443C210.814 166.68 211.388 161.923 211.388 156.174V127.636C211.388 123.612 211.896 119.901 212.911 116.503C213.927 113.054 215.803 110.074 218.541 107.566C221.278 105.005 225.186 103.045 230.264 101.686C235.341 100.274 241.92 99.5688 250 99.5688ZM191.718 0C198.253 0 203.926 0.73174 208.739 2.19522C213.552 3.65869 217.525 6.03684 220.66 9.32967C223.795 12.6225 226.113 17.0129 227.614 22.501C229.16 27.9368 229.932 34.6531 229.932 42.6499V65.1509C229.932 73.5659 231.412 79.6028 234.37 83.2615C237.328 86.8679 242.538 88.6711 250 88.6711V100.431C241.92 100.431 235.341 99.7256 230.264 98.3144C225.186 96.9032 221.278 94.9432 218.541 92.4343C215.803 89.9255 213.927 86.9724 212.911 83.5751C211.896 80.1254 211.388 76.3883 211.388 72.3638V43.8259C211.388 38.0243 210.814 33.268 209.666 29.557C208.562 25.7938 206.575 23.0236 203.706 21.2466C200.836 19.4695 196.84 18.5809 191.718 18.5809V0ZM250 88.6711V111.25H231.654V88.6711H250Z" fill="#0AE427"/>
</svg>
