<svg width="512" height="300" viewBox="0 0 512 130" fill="none" xmlns="http://www.w3.org/2000/svg">
    <g filter="url(#filter0_dd_2007_1420)">
        <path d="M29 98.1314V30H64.3C70.8 30 76.2 30.7591 80.6 32.1825C84.9 33.7007 88.2 35.6934 90.4 38.3504C92.6 41.0073 93.7 43.9489 93.7 47.365C93.7 50.0219 93 52.3942 91.6 54.3869C90.2 56.3796 88.3 57.9927 85.9 59.3212C83.5 60.6496 80.8 61.5036 77.7 62.073V62.7372C81.1 62.8321 84.2 63.5912 87.2 64.9197C90.2 66.2482 92.5 68.146 94.4 70.6131C96.2 72.9854 97.2 75.927 97.2 79.2482C97.2 82.854 96 86.0803 93.7 88.927C91.4 91.7737 88 93.9562 83.5 95.6642C79 97.2774 73.4 98.1314 66.8 98.1314H29ZM61.4 58.562C63.9 58.562 66.2 58.1825 68.2 57.5182C70.2 56.854 71.8 55.8102 72.9 54.5766C74 53.2482 74.6 51.7299 74.6 50.0219C74.6 47.5547 73.5 45.6569 71.2 44.1387C69 42.6204 65.8 41.8613 61.7 41.8613H47.7V58.562H61.4ZM47.8 86.2701H62.8C68 86.2701 71.7 85.5109 74.1 83.9927C76.5 82.4744 77.6 80.4817 77.6 77.9197C77.6 76.0219 77 74.4087 75.9 72.9854C74.7 71.562 73.1 70.4233 70.9 69.5693C68.7 68.7153 66.2 68.3358 63.2 68.3358H47.8V86.2701Z"
              fill="#0000FF"/>
        <path d="M133 99.1752C126.2 99.1752 120.4 98.1314 115.5 95.9489C110.6 93.7664 106.8 90.7299 104.2 86.8394C101.6 82.9489 100.2 78.2044 100.2 72.8905C100.2 67.6715 101.5 63.0219 104.2 59.0365C106.9 55.0511 110.6 52.0146 115.4 49.7372C120.2 47.5547 125.8 46.4161 132.3 46.4161C136.7 46.4161 140.8 46.9854 144.6 48.0292C148.4 49.073 151.7 50.6861 154.5 52.8686C157.3 55.0511 159.5 57.708 161.1 60.9343C162.7 64.1606 163.5 67.9562 163.5 72.3212V76.2117H107.6V67.3869H146C146 65.3942 145.4 63.5912 144.3 62.073C143.2 60.5547 141.6 59.3212 139.6 58.3723C137.6 57.5182 135.3 57.0438 132.7 57.0438C129.9 57.0438 127.5 57.5183 125.4 58.5621C123.3 59.511 121.6 60.8394 120.4 62.4526C119.2 64.0657 118.6 65.8686 118.6 67.8613V76.3066C118.6 78.7737 119.2 80.9562 120.4 82.7591C121.6 84.5621 123.3 85.9854 125.6 86.9343C127.8 87.8832 130.4 88.3577 133.4 88.3577C135.4 88.3577 137.3 88.1679 139 87.6934C140.7 87.219 142.1 86.5548 143.3 85.7007C144.5 84.8467 145.4 83.8029 146 82.4744L163.1 83.3285C162.2 86.4599 160.5 89.2117 157.8 91.5839C155.1 93.9562 151.7 95.7591 147.5 97.0876C143.3 98.511 138.5 99.1752 133 99.1752Z"
              fill="#0000FF"/>
        <path d="M169.4 98.1314V47.0803H187.4V56H188.1C189.3 52.7737 191.3 50.4015 194.2 48.7883C197 47.1752 200.3 46.3212 204 46.3212C204.9 46.3212 205.9 46.3212 206.9 46.4161C207.9 46.511 208.9 46.6058 209.7 46.7956V59.511C208.9 59.3212 207.7 59.1314 206.2 58.9416C204.7 58.7518 203.3 58.7518 202 58.7518C199.3 58.7518 196.9 59.2263 194.8 60.0803C192.7 60.9343 191 62.2628 189.8 63.781C188.6 65.3942 188 67.1971 188 69.2847V98.0365H169.4V98.1314Z"
              fill="#0000FF"/>
        <path d="M231.7 68.7153V98.2263H213.2V47.0803H230.8V56.0949H231.6C233.1 53.0584 235.5 50.781 239 48.9781C242.4 47.2701 246.6 46.3212 251.5 46.3212C256.1 46.3212 260.1 47.0803 263.5 48.6934C266.9 50.3066 269.6 52.4891 271.5 55.3358C273.4 58.1825 274.3 61.5985 274.3 65.5839V98.1314H255.8V68.146C255.8 65.0146 254.8 62.6423 252.7 60.8394C250.6 59.1314 247.8 58.1825 244.1 58.1825C241.7 58.1825 239.5 58.562 237.7 59.4161C235.9 60.2701 234.4 61.4088 233.3 62.927C232.3 64.635 231.8 66.438 231.7 68.7153Z"
              fill="#0000FF"/>
        <path d="M301.7 99.1752C297.5 99.1752 293.7 98.6059 290.4 97.4672C287.1 96.3285 284.5 94.6205 282.6 92.3431C280.7 90.0657 279.7 87.3139 279.7 83.8978C279.7 81.0511 280.4 78.6788 281.7 76.781C283 74.8832 284.9 73.2701 287.2 72.1314C289.5 70.9927 292.2 70.0438 295.1 69.4745C298.1 68.9051 301.2 68.4307 304.5 68.2409C308.3 67.9562 311.4 67.6715 313.7 67.3869C316 67.1022 317.8 66.7226 318.8 66.1533C319.9 65.584 320.4 64.8248 320.4 63.6861V63.4964C320.4 61.4088 319.5 59.7956 317.8 58.6569C316.1 57.5182 313.7 56.9489 310.6 56.9489C307.4 56.9489 304.8 57.5183 302.8 58.5621C300.8 59.6058 299.6 61.0292 299 62.7372L281.8 61.6934C282.6 58.562 284.3 55.9051 286.8 53.6277C289.3 51.3504 292.6 49.5474 296.6 48.3139C300.6 47.0803 305.3 46.4161 310.6 46.4161C314.3 46.4161 317.9 46.7956 321.2 47.4598C324.6 48.1241 327.6 49.1679 330.2 50.5912C332.8 52.0146 334.9 53.8175 336.4 55.9051C337.9 57.9927 338.7 60.6496 338.7 63.6861V98.1314H321.4V91.0146H320.9C319.8 92.6277 318.4 94.0511 316.6 95.1898C314.8 96.3285 312.7 97.3723 310.2 98.0365C307.7 98.7007 304.9 99.1752 301.7 99.1752ZM307 89.3066C309.7 89.3066 312 88.927 314.1 88.073C316.2 87.219 317.7 86.1752 318.9 84.7518C320.1 83.3285 320.7 81.7153 320.7 80.0073V74.5985C320.1 74.8832 319.3 75.1679 318.4 75.3577C317.4 75.5474 316.3 75.8321 315.1 76.0219C313.9 76.2117 312.7 76.4015 311.5 76.4964C310.3 76.6861 309.2 76.781 308.2 76.8759C306.1 77.1606 304.2 77.5402 302.6 78.0146C301 78.4891 299.8 79.2482 298.9 80.1022C298 80.9562 297.6 82.0949 297.6 83.4234C297.6 85.3212 298.5 86.8394 300.3 87.7883C301.9 88.8321 304.2 89.3066 307 89.3066Z"
              fill="#0000FF"/>
        <path d="M347.3 98.1314V47.0803H365.2V56H365.9C367.1 52.7737 369.1 50.4015 372 48.7883C374.8 47.1752 378.1 46.3212 381.8 46.3212C382.7 46.3212 383.7 46.3212 384.7 46.4161C385.7 46.511 386.7 46.6058 387.5 46.7956V59.511C386.7 59.3212 385.5 59.1314 384 58.9416C382.5 58.7518 381.1 58.7518 379.8 58.7518C377.1 58.7518 374.7 59.2263 372.6 60.0803C370.5 60.9343 368.8 62.2628 367.6 63.781C366.4 65.3942 365.8 67.1971 365.8 69.2847V98.0365H347.3V98.1314Z"
              fill="#0000FF"/>
        <path d="M415.5 98.9854C410.5 98.9854 405.9 97.9416 401.9 95.9489C397.8 93.9562 394.6 91.0146 392.3 87.0292C389.9 83.1387 388.8 78.2993 388.8 72.6058C388.8 66.7226 390 61.8832 392.5 57.9927C395 54.1022 398.2 51.1606 402.2 49.2628C406.3 47.365 410.7 46.4161 415.6 46.4161C419.3 46.4161 422.3 46.8905 424.8 47.8394C427.3 48.7883 429.3 50.0219 430.8 51.4453C432.3 52.8686 433.5 54.292 434.3 55.7153H434.9V30.0949H453.4V98.2263H435.1V90.0657H434.3C433.5 91.489 432.3 92.9124 430.7 94.2409C429.1 95.6642 427.1 96.8029 424.6 97.6569C422 98.5109 419 98.9854 415.5 98.9854ZM421.4 87.5985C424.3 87.5985 426.8 86.9343 428.8 85.7007C430.8 84.4672 432.4 82.7591 433.5 80.4818C434.6 78.2044 435.1 75.6423 435.1 72.6058C435.1 69.5693 434.6 67.0073 433.5 64.7299C432.4 62.5474 430.9 60.8394 428.8 59.6058C426.8 58.3723 424.3 57.8029 421.3 57.8029C418.3 57.8029 415.8 58.4671 413.8 59.7007C411.8 60.9343 410.2 62.6423 409.2 64.9197C408.2 67.1022 407.6 69.7591 407.6 72.7007C407.6 75.6423 408.1 78.2044 409.2 80.4818C410.3 82.7591 411.8 84.4671 413.8 85.7956C415.9 86.9343 418.4 87.5985 421.4 87.5985Z"
              fill="#0000FF"/>
        <path d="M473.1 98.9854C470.2 98.9854 467.8 98.2263 465.7 96.6131C463.7 95.0949 462.7 93.1971 462.7 90.9197C462.7 88.7372 463.7 86.8394 465.7 85.3212C467.7 83.8029 470.2 82.9489 473.1 82.9489C475.9 82.9489 478.3 83.708 480.3 85.3212C482.4 86.8394 483.4 88.7372 483.4 90.9197C483.4 92.438 482.9 93.7664 481.9 95C480.9 96.2336 479.7 97.1825 478.1 97.9416C476.5 98.7007 474.9 98.9854 473.1 98.9854Z"
              fill="#0000FF"/>
    </g>
    <defs>
        <filter id="filter0_dd_2007_1420" x="21" y="30" width="470.4" height="93.1752" filterUnits="userSpaceOnUse"
                color-interpolation-filters="sRGB">
            <feFlood flood-opacity="0" result="BackgroundImageFix"/>
            <feColorMatrix in="SourceAlpha" type="matrix" values="0 0 0 0 0 0 0 0 0 0 0 0 0 0 0 0 0 0 127 0"
                           result="hardAlpha"/>
            <feMorphology radius="4" operator="erode" in="SourceAlpha" result="effect1_dropShadow_2007_1420"/>
            <feOffset dy="4"/>
            <feGaussianBlur stdDeviation="2"/>
            <feComposite in2="hardAlpha" operator="out"/>
            <feColorMatrix type="matrix" values="0 0 0 0 0.0470588 0 0 0 0 0.0470588 0 0 0 0 0.0509804 0 0 0 0.05 0"/>
            <feBlend mode="normal" in2="BackgroundImageFix" result="effect1_dropShadow_2007_1420"/>
            <feColorMatrix in="SourceAlpha" type="matrix" values="0 0 0 0 0 0 0 0 0 0 0 0 0 0 0 0 0 0 127 0"
                           result="hardAlpha"/>
            <feMorphology radius="8" operator="erode" in="SourceAlpha" result="effect2_dropShadow_2007_1420"/>
            <feOffset dy="16"/>
            <feGaussianBlur stdDeviation="8"/>
            <feComposite in2="hardAlpha" operator="out"/>
            <feColorMatrix type="matrix" values="0 0 0 0 0.0470588 0 0 0 0 0.0470588 0 0 0 0 0.0509804 0 0 0 0.1 0"/>
            <feBlend mode="normal" in2="effect1_dropShadow_2007_1420" result="effect2_dropShadow_2007_1420"/>
            <feBlend mode="normal" in="SourceGraphic" in2="effect2_dropShadow_2007_1420" result="shape"/>
        </filter>
    </defs>
</svg>
