<svg width="168" height="77" viewBox="0 0 168 77" fill="none" xmlns="http://www.w3.org/2000/svg">
<g filter="url(#filter0_dd_2007_1706)">
<path d="M3 68.9437V0H38.4972C45.0335 0 50.4637 0.768178 54.8883 2.20851C59.2123 3.74486 62.5307 5.76132 64.743 8.44993C66.9553 11.1385 68.0615 14.1152 68.0615 17.572C68.0615 20.2606 67.3575 22.6612 65.9497 24.6776C64.5419 26.6941 62.6313 28.3265 60.2179 29.6708C57.8045 31.0151 55.0894 31.8793 51.9721 32.4554V33.1276C55.3911 33.2236 58.5084 33.9918 61.5251 35.3361C64.5419 36.6804 66.8547 38.6008 68.7654 41.0974C70.5754 43.4979 71.581 46.4746 71.581 49.8354C71.581 53.4842 70.3743 56.749 68.0615 59.6296C65.7486 62.5103 62.3296 64.7188 57.8045 66.4472C53.2793 68.0796 47.648 68.9437 41.0112 68.9437H3ZM35.581 28.9026C38.095 28.9026 40.4078 28.5185 42.419 27.8464C44.4302 27.1742 46.0391 26.118 47.1452 24.8697C48.2514 23.5254 48.8547 21.989 48.8547 20.2606C48.8547 17.7641 47.7486 15.8436 45.4358 14.3073C43.2235 12.7709 40.0056 12.0027 35.8827 12.0027H21.8045V28.9026H35.581ZM21.905 56.941H36.9888C42.2179 56.941 45.9385 56.1728 48.3519 54.6365C50.7654 53.1001 51.8715 51.0837 51.8715 48.4911C51.8715 46.5706 51.2682 44.9382 50.162 43.4979C48.9553 42.0576 47.3464 40.9053 45.1341 40.0411C42.9218 39.1769 40.4078 38.7929 37.3911 38.7929H21.905V56.941Z" fill="#0000FF"/>
<path d="M107.581 70C100.743 70 94.9106 68.9438 89.9832 66.7353C85.0559 64.5268 81.2346 61.454 78.6201 57.5171C76.0056 53.5802 74.5978 48.7792 74.5978 43.4019C74.5978 38.1207 75.905 33.4156 78.6201 29.3827C81.3352 25.3498 85.0559 22.2771 89.8827 19.9726C94.7095 17.7641 100.341 16.6118 106.877 16.6118C111.302 16.6118 115.425 17.1879 119.246 18.2442C123.067 19.3004 126.385 20.9328 129.201 23.1413C132.017 25.3498 134.229 28.0384 135.838 31.3032C137.447 34.5679 138.251 38.4088 138.251 42.8258V46.7627H82.0391V37.8326H120.654C120.654 35.8162 120.05 33.9918 118.944 32.4554C117.838 30.9191 116.229 29.6708 114.218 28.7106C112.207 27.8464 109.894 27.3663 107.279 27.3663C104.464 27.3663 102.05 27.8464 99.9385 28.9026C97.8268 29.8628 96.1173 31.2071 94.9106 32.8395C93.7039 34.4719 93.1005 36.2963 93.1005 38.3128V46.8587C93.1005 49.3553 93.7039 51.5638 94.9106 53.3882C96.1173 55.2126 97.8268 56.653 100.14 57.6132C102.352 58.5734 104.966 59.0535 107.983 59.0535C109.994 59.0535 111.905 58.8614 113.615 58.3813C115.324 57.9012 116.732 57.2291 117.939 56.3649C119.145 55.5007 120.05 54.4444 120.654 53.1001L137.849 53.9644C136.944 57.1331 135.235 59.9177 132.52 62.3182C129.804 64.7188 126.385 66.5432 122.162 67.8875C117.939 69.3279 113.112 70 107.581 70Z" fill="#0000FF"/>
<path d="M154.642 68.9437C151.726 68.9437 149.313 68.1756 147.201 66.5432C145.19 65.0068 144.184 63.0864 144.184 60.7819C144.184 58.5734 145.19 56.6529 147.201 55.1166C149.212 53.5802 151.726 52.716 154.642 52.716C157.458 52.716 159.871 53.4842 161.883 55.1166C163.994 56.6529 165 58.5734 165 60.7819C165 62.3182 164.497 63.6625 163.492 64.9108C162.486 66.1591 161.279 67.1193 159.67 67.8875C158.061 68.6557 156.453 68.9437 154.642 68.9437Z" fill="#0000FF"/>
</g>
<defs>
<filter id="filter0_dd_2007_1706" x="0" y="0" width="168" height="77" filterUnits="userSpaceOnUse" color-interpolation-filters="sRGB">
<feFlood flood-opacity="0" result="BackgroundImageFix"/>
<feColorMatrix in="SourceAlpha" type="matrix" values="0 0 0 0 0 0 0 0 0 0 0 0 0 0 0 0 0 0 127 0" result="hardAlpha"/>
<feMorphology radius="1" operator="erode" in="SourceAlpha" result="effect1_dropShadow_2007_1706"/>
<feOffset dy="4"/>
<feGaussianBlur stdDeviation="2"/>
<feComposite in2="hardAlpha" operator="out"/>
<feColorMatrix type="matrix" values="0 0 0 0 0.0470588 0 0 0 0 0.0470588 0 0 0 0 0.0509804 0 0 0 0.05 0"/>
<feBlend mode="normal" in2="BackgroundImageFix" result="effect1_dropShadow_2007_1706"/>
<feColorMatrix in="SourceAlpha" type="matrix" values="0 0 0 0 0 0 0 0 0 0 0 0 0 0 0 0 0 0 127 0" result="hardAlpha"/>
<feMorphology radius="1" operator="erode" in="SourceAlpha" result="effect2_dropShadow_2007_1706"/>
<feOffset dy="4"/>
<feGaussianBlur stdDeviation="2"/>
<feComposite in2="hardAlpha" operator="out"/>
<feColorMatrix type="matrix" values="0 0 0 0 0.0470588 0 0 0 0 0.0470588 0 0 0 0 0.0509804 0 0 0 0.1 0"/>
<feBlend mode="normal" in2="effect1_dropShadow_2007_1706" result="effect2_dropShadow_2007_1706"/>
<feBlend mode="normal" in="SourceGraphic" in2="effect2_dropShadow_2007_1706" result="shape"/>
</filter>
</defs>
</svg>
